# xmcd
# Track frame offsets:
# 150
# 11916
# 21844
# 31021
# 41584
# 52229
# 63209
# 74161
# 87000
# 89330
# 103108
# 118735
# 127129
# 138463
# 146837
# 160524
# 174797
# 185332
# 193935
# 206355
# 218217
# 226464
# 236149
# 246306
# 256124
# 265002
# 274746
# 286032
# 297402
# 305900
# 315922
# 327253
# 337445
# 347055
#
# Disc length: 4772 seconds
# Revision: 0
# Processed by: cddbd v1.5.2PL0 Copyright (c) Steve Scherf et al.
# Submitted via: VisiTrax 2.10.3.257 - For more info visit www.synapsa.com
#
DISCID=0f12a222
DTITLE=Bobby Bare - The All-American Boy - Disc 1
DYEAR=1993
DGENRE=Country
TTITLE0=Darlin' Don't 1957
TTITLE1=Another Love Has Ended 1956
TTITLE2=Down on The Corner Of Love 1956
TTITLE3=The Life Of A Fooll 1957
TTITLE4=A Beggar 1957
TTITLE5=The Livin' End 1957
TTITLE6=Vampira 1958
TTITLE7=Tender Years 1958
TTITLE8=When The One You Love (incomplete) 1994
TTITLE9=All-American Boy 1959
TTITLE10=What You Gonna Do Now 1993
TTITLE11=I'm Hanging Up My Rifle (alt) 1994
TTITLE12=That's Where I Want To Be 1959
TTITLE13=I'm Hanging Up My Rifle (master) 1959
TTITLE14=Lynching Party (fraternity master) 1960
TTITLE15=Lynching Party (alt) 1994
TTITLE16=Sweet Singin' Sam (rock 'n' roll version) 1994
TTITLE17=Sweet Singin Sam (single master) 1960
TTITLE18=Lynching Party (RCA release) 1963
TTITLE19=More Than A Poor Boy Could Give 1960
TTITLE20=No Letter From My Baby 1960
TTITLE21=Book Of Love 1961
TTITLE22=Can Can Ladies 1994
TTITLE23=Lorena 1961
TTITLE24=Zig Zag twist 1961
TTITLE25=Island Of Love 1961
TTITLE26=Sailor Man 1961
TTITLE27=These Tender Years 1994
TTITLE28=Lovesick 1994
TTITLE29=Great Big Car 1994
TTITLE30=Brooklyn Bridge (alt) 1994
TTITLE31=The Mean Old Clock 1961
TTITLE32=The Day My Rainbow Fell 1961
TTITLE33=Brooklyn Bridge (master) 1961
EXTD=
EXTT0=
EXTT1=
EXTT2=
EXTT3=
EXTT4=
EXTT5=
EXTT6=
EXTT7=
EXTT8=
EXTT9=
EXTT10=
EXTT11=
EXTT12=
EXTT13=
EXTT14=
EXTT15=
EXTT16=
EXTT17=
EXTT18=
EXTT19=
EXTT20=
EXTT21=
EXTT22=
EXTT23=
EXTT24=
EXTT25=
EXTT26=
EXTT27=
EXTT28=
EXTT29=
EXTT30=
EXTT31=
EXTT32=
EXTT33=
PLAYORDER=
